<svg xmlns="http://www.w3.org/2000/svg" width="15.4" height="15.4" viewBox="0 0 15.4 15.4"><path d="M13.6,1.2h-.722V0h-1.2V1.2H3.73V0h-1.2V1.2H1.8A1.807,1.807,0,0,0,0,3.008V13.6a1.807,1.807,0,0,0,1.8,1.8H13.6a1.807,1.807,0,0,0,1.8-1.8V3.008A1.807,1.807,0,0,0,13.6,1.2ZM14.2,13.6a.6.6,0,0,1-.6.6H1.8a.6.6,0,0,1-.6-.6V5.655H14.2Zm0-9.144H1.2V3.008a.6.6,0,0,1,.6-.6h.722v1.2h1.2v-1.2H11.67v1.2h1.2v-1.2H13.6a.6.6,0,0,1,.6.6Z" fill="#a84866"/><g transform="translate(2.286 6.918)"><rect width="1.203" height="1.203" fill="#a84866"/></g><g transform="translate(4.692 6.918)"><rect width="1.203" height="1.203" fill="#a84866"/></g><g transform="translate(7.098 6.918)"><rect width="1.203" height="1.203" fill="#a84866"/></g><g transform="translate(9.505 6.918)"><rect width="1.203" height="1.203" fill="#a84866"/></g><g transform="translate(11.911 6.918)"><rect width="1.203" height="1.203" fill="#a84866"/></g><g transform="translate(2.286 9.324)"><rect width="1.203" height="1.203" fill="#a84866"/></g><g transform="translate(4.692 9.324)"><rect width="1.203" height="1.203" fill="#a84866"/></g><g transform="translate(7.098 9.324)"><rect width="1.203" height="1.203" fill="#a84866"/></g><g transform="translate(9.505 9.324)"><rect width="1.203" height="1.203" fill="#a84866"/></g><g transform="translate(2.286 11.73)"><rect width="1.203" height="1.203" fill="#a84866"/></g><g transform="translate(4.692 11.73)"><rect width="1.203" height="1.203" fill="#a84866"/></g><g transform="translate(7.098 11.73)"><rect width="1.203" height="1.203" fill="#a84866"/></g><g transform="translate(9.505 11.73)"><rect width="1.203" height="1.203" fill="#a84866"/></g><g transform="translate(11.911 9.324)"><rect width="1.203" height="1.203" fill="#a84866"/></g></svg>