<svg xmlns="http://www.w3.org/2000/svg" width="92.642" height="92.642" viewBox="0 0 92.642 92.642">
  <g id="clock_1_" data-name="clock (1)" transform="translate(-0.002 0)">
    <g id="Group_1540" data-name="Group 1540" transform="translate(0.002 0)">
      <g id="Group_1539" data-name="Group 1539" transform="translate(0 0)">
        <path id="Path_741" data-name="Path 741" d="M89.93,43.607a2.714,2.714,0,0,0-2.714,2.714A40.875,40.875,0,1,1,65.857,10.389l-3.393,3.393a2.714,2.714,0,0,0,1.919,4.633H77.37A2.714,2.714,0,0,0,80.084,15.7V2.714A2.714,2.714,0,0,0,75.451.8L69.838,6.408A46.324,46.324,0,0,0,13.569,79.075,46.321,46.321,0,0,0,92.644,46.321,2.714,2.714,0,0,0,89.93,43.607Z" transform="translate(-0.002 0)" fill="#0054fc"/>
      </g>
    </g>
    <g id="Group_1542" data-name="Group 1542" transform="translate(43.609 26.164)">
      <g id="Group_1541" data-name="Group 1541">
        <path id="Path_742" data-name="Path 742" d="M261.16,162.044H246.431V147.315a2.714,2.714,0,0,0-5.428,0v17.443a2.714,2.714,0,0,0,2.714,2.714H261.16a2.714,2.714,0,0,0,0-5.428Z" transform="translate(-241.003 -144.601)" fill="#0054fc"/>
      </g>
    </g>
  </g>
</svg>
