<svg xmlns="http://www.w3.org/2000/svg" width="27.098" height="27.098" viewBox="0 0 27.098 27.098">
  <g id="clock_2_" data-name="clock (2)" transform="translate(0 0)">
    <path id="Path_743" data-name="Path 743" d="M24.247,7.13a1.129,1.129,0,0,0-.525,1.508,11.176,11.176,0,0,1,1.118,4.911A11.291,11.291,0,1,1,13.549,2.258a11.155,11.155,0,0,1,7.009,2.436,1.129,1.129,0,1,0,1.405-1.767A13.551,13.551,0,1,0,27.1,13.549a13.411,13.411,0,0,0-1.344-5.894,1.128,1.128,0,0,0-1.508-.525Zm0,0" fill="#0054fc"/>
    <path id="Path_744" data-name="Path 744" d="M177.129,64A1.129,1.129,0,0,0,176,65.129v7.9a1.129,1.129,0,0,0,1.129,1.129h5.645a1.129,1.129,0,0,0,0-2.258h-4.516V65.129A1.129,1.129,0,0,0,177.129,64Zm0,0" transform="translate(-163.58 -59.484)" fill="#0054fc"/>
  </g>
</svg>
