<svg xmlns="http://www.w3.org/2000/svg" width="24.8" height="24.337" viewBox="0 0 24.8 24.337">
  <g id="edit" transform="translate(-5.6 -6.9)">
    <g id="Group_36" data-name="Group 36" transform="translate(5.6 6.9)">
      <path id="Path_15" data-name="Path 15" d="M29.595,114.3H6.563a.867.867,0,0,0-.863.863.881.881,0,0,0,.863.863H29.616a.867.867,0,0,0,.863-.863A.885.885,0,0,0,29.595,114.3Z" transform="translate(-5.679 -91.689)"/>
      <path id="Path_16" data-name="Path 16" d="M5.621,21.869,5.6,25.974a.891.891,0,0,0,.253.632.843.843,0,0,0,.611.253l4.084-.021a.843.843,0,0,0,.611-.253L25.263,12.479a.89.89,0,0,0,0-1.242L21.221,7.153a.89.89,0,0,0-1.242,0L17.158,9.995,5.874,21.258a.938.938,0,0,0-.253.611ZM20.611,9.005l2.842,2.842-1.6,1.6-2.842-2.842ZM7.368,22.247l10.4-10.4,2.842,2.842-10.4,10.379-2.863.021.021-2.842Z" transform="translate(-5.6 -6.9)"/>
    </g>
  </g>
</svg>
