<svg id="facebook" xmlns="http://www.w3.org/2000/svg" width="18" height="18" viewBox="0 0 18 18">
  <g id="Group_207" data-name="Group 207">
    <path id="Path_317" data-name="Path 317" d="M15.891,0H2.109A2.112,2.112,0,0,0,0,2.109V15.891A2.112,2.112,0,0,0,2.109,18H15.891A2.112,2.112,0,0,0,18,15.891V2.109A2.112,2.112,0,0,0,15.891,0Zm.7,15.891a.7.7,0,0,1-.7.7H11.883v-5.73h2.172l.359-2.18H11.883V7.172a1.037,1.037,0,0,1,1.055-1.055h1.441V3.938H12.938A3.234,3.234,0,0,0,9.7,7.178V8.684H7.594v2.18H9.7v5.73H2.109a.7.7,0,0,1-.7-.7V2.109a.7.7,0,0,1,.7-.7H15.891a.7.7,0,0,1,.7.7Z" fill="#182936"/>
  </g>
</svg>
