<svg xmlns="http://www.w3.org/2000/svg" width="373.088" height="232.123" viewBox="0 0 373.088 232.123">
  <g id="Group_1609" data-name="Group 1609" transform="translate(0 0)">
    <path id="Path_1548" data-name="Path 1548" d="M290.838,103.158c-16.009,11.208-36.773,10.484-54.97,4.652s-34.911-16.216-52.64-23.6a171.063,171.063,0,0,0-46.251-12.056c-22.6-2.586-47.829.564-63.571,18.691-17.532,20.176-16.185,56.576,2.769,75.111,9.647,9.422,22.277,14.046,33.291,21.4s21.218,19.564,20.28,33.755c-.869,13.153-10.966,23.233-21.415,29.563-8.075,4.891-18.02,10.232-18.992,20.363-.941,9.8,7.421,17.483,15.406,21.851a87.509,87.509,0,0,0,84.111-.346c9.256-5.175,17.757-12.042,27.466-16.05,25.493-10.564,53.585.073,80.58,3.96a161.084,161.084,0,0,0,68.535-4.988c13.368-3.949,26.787-9.986,36.178-21.232,6.774-8.11,10.993-18.369,14.953-28.508q6.334-16.209,12.18-32.651c2.336-6.577,4.638-13.285,5.244-20.325,1.094-12.755-3.517-25.365-9.8-36.13-14.908-25.579-40.017-43.551-67.209-48.116s-55.96,4.351-77.05,23.863" transform="translate(-61.065 -71.368)" fill="#fff"/>
    <g id="undraw_Process_re_gws7" transform="translate(90.682 16.302)">
      <rect id="Rectangle_1892" data-name="Rectangle 1892" width="0.532" height="34.726" transform="translate(133.081 24.825) rotate(-46.407)" fill="#e6e6e6"/>
      <path id="Path_1108" data-name="Path 1108" d="M492.417,143.982l-.531.032.16,2.616-2.621-.031-.006.532,3.192.038Z" transform="translate(-333.777 -98.194)" fill="#e6e6e6"/>
      <path id="Path_1109" data-name="Path 1109" d="M420.937,76.244l-.006.532-2.621-.031.16,2.616-.531.032-.194-3.186Z" transform="translate(-284.896 -51.971)" fill="#e6e6e6"/>
      <ellipse id="Ellipse_279" data-name="Ellipse 279" cx="2.923" cy="2.923" rx="2.923" ry="2.923" transform="translate(142.918 33.682)" fill="#e6e6e6"/>
      <rect id="Rectangle_1893" data-name="Rectangle 1893" width="34.726" height="0.532" transform="translate(33.249 48.385) rotate(-43.593)" fill="#e6e6e6"/>
      <path id="Path_1110" data-name="Path 1110" d="M103.815,147.168l3.192-.038L107,146.6l-2.621.031.16-2.616-.531-.032Z" transform="translate(-70.8 -98.194)" fill="#e6e6e6"/>
      <path id="Path_1111" data-name="Path 1111" d="M178.682,76.206l-.194,3.186-.531-.032.16-2.616-2.621.031-.006-.532Z" transform="translate(-119.682 -51.971)" fill="#e6e6e6"/>
      <ellipse id="Ellipse_280" data-name="Ellipse 280" cx="2.923" cy="2.923" rx="2.923" ry="2.923" transform="translate(43.084 33.682)" fill="#e6e6e6"/>
      <path id="Path_1112" data-name="Path 1112" d="M569.624,195.6H525.507a2.4,2.4,0,0,1-2.392-2.392V137.392A2.394,2.394,0,0,1,525.507,135h44.117a2.4,2.4,0,0,1,2.392,2.392V193.2A2.4,2.4,0,0,1,569.624,195.6Zm-44.117-60.064a1.863,1.863,0,0,0-1.86,1.86V193.2a1.863,1.863,0,0,0,1.86,1.86h44.117a1.863,1.863,0,0,0,1.86-1.86V137.392a1.863,1.863,0,0,0-1.86-1.86Z" transform="translate(-451.907 -135)" fill="#3f3d56"/>
      <path id="Path_1113" data-name="Path 1113" d="M565.07,189.653h-9.711a1.2,1.2,0,0,1-1.2-1.2V177a1.2,1.2,0,0,1,1.2-1.2h9.711a1.2,1.2,0,0,1,1.2,1.2v11.46A1.2,1.2,0,0,1,565.07,189.653Z" transform="translate(-473.081 -162.826)" fill="#0054fc"/>
      <path id="Path_1114" data-name="Path 1114" d="M624.406,206.367h-9.711a1.2,1.2,0,0,1-1.2-1.2v-11.46a1.2,1.2,0,0,1,1.2-1.2h9.711a1.2,1.2,0,0,1,1.2,1.2v11.46A1.2,1.2,0,0,1,624.406,206.367Z" transform="translate(-513.547 -174.225)" fill="#ccc"/>
      <path id="Path_1115" data-name="Path 1115" d="M576.769,257.346h-9.711a1.2,1.2,0,0,1-1.2-1.2V244.69a1.2,1.2,0,0,1,1.2-1.2h9.711a1.2,1.2,0,0,1,1.2,1.2v11.46A1.2,1.2,0,0,1,576.769,257.346Z" transform="translate(-481.06 -208.992)" fill="#ff6584"/>
      <path id="Path_1116" data-name="Path 1116" d="M793.538,376.052H749.42a2.4,2.4,0,0,1-2.392-2.392V317.849a2.4,2.4,0,0,1,2.392-2.392h44.118a2.4,2.4,0,0,1,2.392,2.392v55.811A2.4,2.4,0,0,1,793.538,376.052ZM749.42,315.989a1.862,1.862,0,0,0-1.86,1.86v55.811a1.862,1.862,0,0,0,1.86,1.86h44.118a1.862,1.862,0,0,0,1.86-1.86V317.849a1.863,1.863,0,0,0-1.86-1.86Z" transform="translate(-604.613 -258.069)" fill="#3f3d56"/>
      <path id="Path_1117" data-name="Path 1117" d="M812.965,349.758H797.816a1.063,1.063,0,1,1,0-2.126h15.149a1.063,1.063,0,1,1,0,2.126Z" transform="translate(-638.524 -280.012)" fill="#0054fc"/>
      <path id="Path_1118" data-name="Path 1118" d="M804.448,381.515H774.416a1.063,1.063,0,0,1,0-2.126h30.032a1.063,1.063,0,0,1,0,2.126Z" transform="translate(-622.566 -301.67)" fill="#ccc"/>
      <path id="Path_1119" data-name="Path 1119" d="M804.448,399.065H774.416a1.063,1.063,0,0,1,0-2.126h30.032a1.063,1.063,0,0,1,0,2.126Z" transform="translate(-622.566 -313.639)" fill="#ccc"/>
      <path id="Path_1120" data-name="Path 1120" d="M804.448,416.615H774.416a1.063,1.063,0,0,1,0-2.126h30.032a1.063,1.063,0,0,1,0,2.126Z" transform="translate(-622.566 -325.608)" fill="#ccc"/>
      <path id="Path_1121" data-name="Path 1121" d="M804.448,434.165H774.416a1.063,1.063,0,0,1,0-2.126h30.032a1.063,1.063,0,0,1,0,2.126Z" transform="translate(-622.566 -337.577)" fill="#ccc"/>
      <path id="Path_1122" data-name="Path 1122" d="M804.448,451.715H774.416a1.063,1.063,0,0,1,0-2.126h30.032a1.063,1.063,0,0,1,0,2.126Z" transform="translate(-622.566 -349.546)" fill="#ccc"/>
      <path id="Path_1123" data-name="Path 1123" d="M804.448,469.265H774.416a1.063,1.063,0,0,1,0-2.126h30.032a1.063,1.063,0,0,1,0,2.126Z" transform="translate(-622.566 -361.514)" fill="#ccc"/>
      <path id="Path_1124" data-name="Path 1124" d="M345.71,376.053H301.592a2.4,2.4,0,0,1-2.392-2.392V317.85a2.4,2.4,0,0,1,2.392-2.392H345.71a2.4,2.4,0,0,1,2.392,2.392v55.811A2.4,2.4,0,0,1,345.71,376.053Zm-44.118-60.064a1.862,1.862,0,0,0-1.86,1.86v55.811a1.862,1.862,0,0,0,1.86,1.86H345.71a1.862,1.862,0,0,0,1.86-1.86V317.85a1.862,1.862,0,0,0-1.86-1.86Z" transform="translate(-299.2 -258.07)" fill="#3f3d56"/>
      <path id="Path_1125" data-name="Path 1125" d="M392.671,352.333H379.383a1.063,1.063,0,1,1,0-2.126h13.288a1.063,1.063,0,1,1,0,2.126Z" transform="translate(-353.159 -281.768)" fill="#3f3d56"/>
      <path id="Path_1126" data-name="Path 1126" d="M392.671,369.883H379.383a1.063,1.063,0,1,1,0-2.126h13.288a1.063,1.063,0,1,1,0,2.126Z" transform="translate(-353.159 -293.737)" fill="#3f3d56"/>
      <path id="Path_1127" data-name="Path 1127" d="M336.831,354.73H327.12a1.2,1.2,0,0,1-1.2-1.2v-11.46a1.2,1.2,0,0,1,1.2-1.2h9.711a1.2,1.2,0,0,1,1.2,1.2v11.46A1.2,1.2,0,0,1,336.831,354.73Z" transform="translate(-317.426 -275.406)" fill="#0054fc"/>
      <path id="Path_1128" data-name="Path 1128" d="M356.475,405.818H326.443a1.063,1.063,0,1,1,0-2.126h30.032a1.063,1.063,0,0,1,0,2.126Z" transform="translate(-317.055 -318.244)" fill="#ccc"/>
      <path id="Path_1129" data-name="Path 1129" d="M356.475,423.368H326.443a1.063,1.063,0,1,1,0-2.126h30.032a1.063,1.063,0,0,1,0,2.126Z" transform="translate(-317.055 -330.213)" fill="#ccc"/>
      <path id="Path_1130" data-name="Path 1130" d="M356.475,440.918H326.443a1.063,1.063,0,1,1,0-2.126h30.032a1.063,1.063,0,0,1,0,2.126Z" transform="translate(-317.055 -342.182)" fill="#ccc"/>
      <path id="Path_1131" data-name="Path 1131" d="M356.475,458.468H326.443a1.063,1.063,0,1,1,0-2.126h30.032a1.063,1.063,0,0,1,0,2.126Z" transform="translate(-317.055 -354.151)" fill="#ccc"/>
      <path id="Path_1132" data-name="Path 1132" d="M356.475,476.018H326.443a1.063,1.063,0,1,1,0-2.126h30.032a1.063,1.063,0,0,1,0,2.126Z" transform="translate(-317.055 -366.12)" fill="#ccc"/>
      <path id="Path_1133" data-name="Path 1133" d="M497.9,580.578v-11.46a1.2,1.2,0,0,1,1.2-1.2H508.8a1.2,1.2,0,0,1,1.2,1.2v11.46a1.2,1.2,0,0,1-1.2,1.2h-9.711A1.2,1.2,0,0,1,497.9,580.578Z" transform="translate(-434.707 -430.247)" fill="#e6e6e6"/>
      <path id="Path_1134" data-name="Path 1134" d="M508.9,568.578v-11.46a1.2,1.2,0,0,1,1.2-1.2H519.8a1.2,1.2,0,0,1,1.2,1.2v11.46a1.2,1.2,0,0,1-1.2,1.2h-9.711A1.2,1.2,0,0,1,508.9,568.578Z" transform="translate(-442.209 -422.063)" fill="#0054fc"/>
      <path id="Path_1135" data-name="Path 1135" d="M637.693,527.652a2.887,2.887,0,0,1-.763-4.36l-3.01-22,6.27.308.984,21.461a2.9,2.9,0,0,1-3.482,4.594Z" transform="translate(-527.475 -384.804)" fill="#a0616a"/>
      <path id="Path_1136" data-name="Path 1136" d="M628.381,469.143a1.179,1.179,0,0,1-.479.339l-5.635,2.151a1.184,1.184,0,0,1-1.5-.625l-4.992-11.218a4.687,4.687,0,0,1-.229-3.317,4.559,4.559,0,0,1,3.47-3.111,4.35,4.35,0,0,1,1.873.026,4.542,4.542,0,0,1,3.264,2.837l4.438,11.732A1.186,1.186,0,0,1,628.381,469.143Z" transform="translate(-514.805 -352.057)" fill="#ccc"/>
      <path id="Path_1137" data-name="Path 1137" d="M253.414,585.658h-3.9L248.1,570.549l5.313.071Z" transform="translate(-169.202 -389.107)" fill="#a0616a"/>
      <path id="Path_1138" data-name="Path 1138" d="M233.637,614.557h7.519v4.734H228.9A4.734,4.734,0,0,1,233.637,614.557Z" transform="translate(-156.109 -419.119)" fill="#2f2e41"/>
      <path id="Path_1139" data-name="Path 1139" d="M309.469,585.81h-3.9l-1.855-15.038h5.754Z" transform="translate(-207.13 -389.259)" fill="#a0616a"/>
      <path id="Path_1140" data-name="Path 1140" d="M290.637,614.557h7.519v4.734H285.9A4.734,4.734,0,0,1,290.637,614.557Z" transform="translate(-194.982 -419.119)" fill="#2f2e41"/>
      <path id="Path_1141" data-name="Path 1141" d="M568.767,616.326l-6.123-.453a1.433,1.433,0,0,1-1.324-1.358L559.954,586.3a1.113,1.113,0,0,0-2.2-.17l-5.7,27.8a1.433,1.433,0,0,1-1.516,1.139L545,614.62a1.431,1.431,0,0,1-1.31-1.569L548.83,561.7a1.431,1.431,0,0,1,1.728-1.256l19.528,4.245a1.435,1.435,0,0,1,1.127,1.425l-.909,48.811a1.432,1.432,0,0,1-1.428,1.4C568.84,616.33,568.8,616.328,568.767,616.326Z" transform="translate(-465.937 -425.124)" fill="#2f2e41"/>
      <ellipse id="Ellipse_281" data-name="Ellipse 281" cx="7.811" cy="7.811" rx="7.811" ry="7.811" transform="translate(89.661 78.017)" fill="#a0616a"/>
      <path id="Path_1142" data-name="Path 1142" d="M562.618,481.619a6.984,6.984,0,0,1-2.319-5.364c0-11.226,9.717-36.307,10.022-37.09.03-.189.286-.27,1.631-1.179s3.287-1.049,5.769-.415a1.424,1.424,0,0,1,1.034,1.055l.462.667a1.11,1.11,0,0,0,.645.765c2,.843,8.363,4.731,6.2,19.364-2.014,13.593-2.831,21.587-3.089,24.393a1.428,1.428,0,0,1-1.295,1.293c-.981.088-2.666.2-4.672.2C572.351,485.315,565.973,484.688,562.618,481.619Z" transform="translate(-477.264 -341.084)" fill="#ccc"/>
      <path id="Path_1143" data-name="Path 1143" d="M537.615,512.383a2.887,2.887,0,0,1,1.8-4.046l9.761-19.947,5.035,3.75-11.141,18.369a2.9,2.9,0,0,1-5.451,1.874Z" transform="translate(-461.595 -376.007)" fill="#a0616a"/>
      <path id="Path_1144" data-name="Path 1144" d="M576.325,462.4a1.177,1.177,0,0,1-.586.014l-5.878-1.354a1.184,1.184,0,0,1-.9-1.357l2.106-12.1a4.688,4.688,0,0,1,1.658-2.882,4.559,4.559,0,0,1,4.615-.65,4.348,4.348,0,0,1,1.541,1.066,4.541,4.541,0,0,1,1.129,4.175l-2.852,12.215A1.186,1.186,0,0,1,576.325,462.4Z" transform="translate(-483.161 -345.541)" fill="#ccc"/>
      <path id="Path_1145" data-name="Path 1145" d="M583.072,390.951a3.366,3.366,0,0,1-.9-2.985c.272-1.425.432-2.357.463-2.7h0c.1-1.16-1.069-2.1-2.229-2.249-.045-.006-.083-.01-.114-.012l.089.085c.22.207.495.465.43.731-.039.16-.186.274-.447.347a3.789,3.789,0,0,1-4.4-1.468,3.506,3.506,0,0,1-.669-1.462,5.808,5.808,0,0,1,1.732-4.985,6.029,6.029,0,0,1,3.942-2.147,3.461,3.461,0,0,1,3.418,2.091,2.6,2.6,0,0,1,2.023-1.14,4.662,4.662,0,0,1,2.594.722,8.652,8.652,0,0,1-3.063,16.11,3.3,3.3,0,0,1-.552.047A3.217,3.217,0,0,1,583.072,390.951Z" transform="translate(-487.428 -298.066)" fill="#2f2e41"/>
      <path id="Path_1146" data-name="Path 1146" d="M484.1,763.636H546.11a.318.318,0,0,0,0-.636H484.1a.318.318,0,0,0,0,.636Z" transform="translate(-425.08 -563.287)" fill="#3f3d56"/>
    </g>
  </g>
</svg>
