<svg xmlns="http://www.w3.org/2000/svg" width="373.088" height="232.123" viewBox="0 0 373.088 232.123">
  <g id="Group_1610" data-name="Group 1610" transform="translate(0 0)">
    <path id="Path_1547" data-name="Path 1547" d="M290.838,103.158c-16.009,11.208-36.773,10.484-54.97,4.652s-34.911-16.216-52.64-23.6a171.063,171.063,0,0,0-46.251-12.056c-22.6-2.586-47.829.564-63.571,18.691-17.532,20.176-16.185,56.576,2.769,75.111,9.647,9.422,22.277,14.046,33.291,21.4s21.218,19.564,20.28,33.755c-.869,13.153-10.966,23.233-21.415,29.563-8.075,4.891-18.02,10.232-18.992,20.363-.941,9.8,7.421,17.483,15.406,21.851a87.509,87.509,0,0,0,84.111-.346c9.256-5.175,17.757-12.042,27.466-16.05,25.493-10.564,53.585.073,80.58,3.96a161.084,161.084,0,0,0,68.535-4.988c13.368-3.949,26.787-9.986,36.178-21.232,6.774-8.11,10.993-18.369,14.953-28.508q6.334-16.209,12.18-32.651c2.336-6.577,4.638-13.285,5.244-20.325,1.094-12.755-3.517-25.365-9.8-36.13-14.908-25.579-40.017-43.551-67.209-48.116s-55.96,4.351-77.05,23.863" transform="translate(-61.065 -71.368)" fill="#fff"/>
    <g id="undraw_reviews_lp8w" transform="translate(36.68 16.302)">
      <path id="Path_1147" data-name="Path 1147" d="M852.615,461.042a3.922,3.922,0,0,1,.6-.129l8.17-16.6-2.494-3.739,5.151-4.5,6.476,7.924-13.189,19.195a3.916,3.916,0,1,1-4.719-2.147Z" transform="translate(-607.03 -341.093)" fill="#a0616a"/>
      <path id="Path_1148" data-name="Path 1148" d="M868.9,425.246a1.685,1.685,0,0,1-.379.3l-8.359,4.846a1.679,1.679,0,0,1-2.359-.734l-4.066-8.589a1.67,1.67,0,0,1,.574-2.106l5.182-3.525a1.68,1.68,0,0,1,2.133.2l7.243,7.268a1.68,1.68,0,0,1,.032,2.339Z" transform="translate(-609.369 -327.975)" fill="#ccc"/>
      <path id="Path_1149" data-name="Path 1149" d="M708.363,487.084l-4.414,1.2-6.732-16.452,6.514-1.773Z" transform="translate(-437.094 -294.686)" fill="#a0616a"/>
      <path id="Path_1150" data-name="Path 1150" d="M5.554,0h8.821V5.554H0A5.554,5.554,0,0,1,5.554,0Z" transform="translate(258.001 194.652) rotate(-15.221)" fill="#2f2e41"/>
      <path id="Path_1151" data-name="Path 1151" d="M614.619,495.07h-4.574l-2.176-17.643h6.751Z" transform="translate(-381.08 -299.304)" fill="#a0616a"/>
      <path id="Path_1152" data-name="Path 1152" d="M595.611,521.212h8.821v5.554H590.057A5.554,5.554,0,0,1,595.611,521.212Z" transform="translate(-369.914 -326.754)" fill="#2f2e41"/>
      <ellipse id="Ellipse_282" data-name="Ellipse 282" cx="9.163" cy="9.163" rx="9.163" ry="9.163" transform="translate(229.194 63.277)" fill="#a0616a"/>
      <path id="Path_1153" data-name="Path 1153" d="M809.441,554.014h-6.25a1.684,1.684,0,0,1-1.677-1.576c-1.863-29.609-.773-50.848,3.429-66.84a1.715,1.715,0,0,1,.068-.206l.335-.837A1.671,1.671,0,0,1,806.9,483.5h12.854a1.675,1.675,0,0,1,1.275.586l1.746,2.037c.034.04.066.08.1.123,7.872,10.979,14.928,32.442,23.1,61.29a1.673,1.673,0,0,1-1.1,2.058l-6.717,2.15a1.688,1.688,0,0,1-2.024-.87L818.7,514.719a1.306,1.306,0,0,0-2.47.39L811.1,552.562A1.685,1.685,0,0,1,809.441,554.014Z" transform="translate(-576.182 -370.827)" fill="#2f2e41"/>
      <path id="Path_1154" data-name="Path 1154" d="M828.339,433.911h-.053l-15.613-.493a1.673,1.673,0,0,1-1.615-1.475c-1.979-16.021,3.449-20.313,5.875-21.414a1.291,1.291,0,0,0,.751-1.023l.21-1.679a1.673,1.673,0,0,1,.332-.815A19.186,19.186,0,0,1,829.978,400a1.676,1.676,0,0,1,1.959,1.436l.314,2.411a1.331,1.331,0,0,0,.266.631c7.932,10.369-.9,25.679-2.756,28.642h0A1.682,1.682,0,0,1,828.339,433.911Z" transform="translate(-582.448 -318.466)" fill="#ccc"/>
      <path id="Path_1155" data-name="Path 1155" d="M838.965,358.009a36.472,36.472,0,0,0-7.277-7.618,21.614,21.614,0,0,0-7.727-4.088,11.982,11.982,0,0,0-8.567.765c-2.591,1.377-5.27,4.113-5.286,7.047-.005.943.235,2.218,1.163,2.055l.269.036,6.718-1.357,2.861,9.93a1.918,1.918,0,0,0,3.109,1.528c.1-.043,1-2.045,1-2.045a.373.373,0,0,1,.643-.108l.53.662a.746.746,0,0,0,.87.222l10.956-4.573c.5-.211,1.069-.486,1.215-1.013A1.806,1.806,0,0,0,838.965,358.009Z" transform="translate(-582.119 -284.537)" fill="#2f2e41"/>
      <path id="Path_1156" data-name="Path 1156" d="M810.649,717.246h-112.3a.373.373,0,0,1,0-.746h112.3a.373.373,0,1,1,0,.746Z" transform="translate(-511.823 -516.898)" fill="#3f3d56"/>
      <path id="Path_1157" data-name="Path 1157" d="M822.072,543.69a1.2,1.2,0,0,1-.7-.233l-1.7-1.234a.823.823,0,0,0-.971,0l-1.7,1.234a1.2,1.2,0,0,1-1.845-1.34l.649-2a.824.824,0,0,0-.3-.923l-1.7-1.234a1.2,1.2,0,0,1,.7-2.169h2.1a.824.824,0,0,0,.785-.571l.649-2a1.2,1.2,0,0,1,2.28,0l.649,2a.824.824,0,0,0,.785.571h2.1a1.2,1.2,0,0,1,.7,2.169l-1.7,1.234a.824.824,0,0,0-.3.923l.649,2a1.181,1.181,0,0,1-.436,1.34A1.2,1.2,0,0,1,822.072,543.69Z" transform="translate(-584.128 -401.483)" fill="#0054fc"/>
      <path id="Path_1158" data-name="Path 1158" d="M843.494,482.828a4.008,4.008,0,0,0,.525-6.123l2.9-35.022-8.635,1.188L838.12,476.9a4.03,4.03,0,0,0,5.374,5.93Z" transform="translate(-599.059 -344.611)" fill="#a0616a"/>
      <path id="Path_1159" data-name="Path 1159" d="M846.477,430.08a1.685,1.685,0,0,1-.478-.069l-9.27-2.726a1.679,1.679,0,0,1-1.092-2.217l3.43-8.862a1.67,1.67,0,0,1,1.922-1.034l6.124,1.331a1.68,1.68,0,0,1,1.322,1.687l-.285,10.257a1.68,1.68,0,0,1-1.674,1.633Z" transform="translate(-598.053 -327.966)" fill="#ccc"/>
      <path id="Path_1160" data-name="Path 1160" d="M360.2,484.106H201.636a2.615,2.615,0,0,1-2.612-2.612V434.112a2.615,2.615,0,0,1,2.612-2.612H360.2a2.615,2.615,0,0,1,2.612,2.612v47.382a2.615,2.615,0,0,1-2.612,2.612ZM201.636,432.246a1.868,1.868,0,0,0-1.865,1.865v47.382a1.868,1.868,0,0,0,1.865,1.865H360.2a1.868,1.868,0,0,0,1.865-1.865V434.112a1.868,1.868,0,0,0-1.865-1.865Z" transform="translate(-199.024 -338.228)" fill="#3f3d56"/>
      <path id="Path_1161" data-name="Path 1161" d="M373.965,602.731a1.464,1.464,0,0,1-.863-.286l-2.081-1.512a1.008,1.008,0,0,0-1.189,0l-2.08,1.512a1.469,1.469,0,0,1-2.26-1.642l.795-2.446a1.009,1.009,0,0,0-.367-1.131l-2.081-1.512a1.469,1.469,0,0,1,.863-2.657h2.572a1.009,1.009,0,0,0,.962-.7l.795-2.446a1.469,1.469,0,0,1,2.794,0l.795,2.446a1.009,1.009,0,0,0,.962.7h2.572a1.469,1.469,0,0,1,.863,2.657l-2.081,1.512a1.009,1.009,0,0,0-.367,1.131l.795,2.446a1.447,1.447,0,0,1-.534,1.642,1.465,1.465,0,0,1-.863.286Z" transform="translate(-301.968 -436.903)" fill="#0054fc"/>
      <path id="Path_1162" data-name="Path 1162" d="M430.473,602.731a1.464,1.464,0,0,1-.863-.286l-2.081-1.512a1.008,1.008,0,0,0-1.189,0l-2.081,1.512A1.469,1.469,0,0,1,422,600.8l.795-2.446a1.009,1.009,0,0,0-.367-1.131l-2.08-1.512a1.469,1.469,0,0,1,.863-2.657h2.572a1.009,1.009,0,0,0,.962-.7l.795-2.446a1.469,1.469,0,0,1,2.794,0l.795,2.446a1.009,1.009,0,0,0,.962.7h2.572a1.469,1.469,0,0,1,.863,2.657l-2.081,1.512a1.009,1.009,0,0,0-.368,1.131l.795,2.446a1.447,1.447,0,0,1-.534,1.642,1.464,1.464,0,0,1-.863.286Z" transform="translate(-337.394 -436.903)" fill="#0054fc"/>
      <path id="Path_1163" data-name="Path 1163" d="M486.982,602.731a1.464,1.464,0,0,1-.863-.286l-2.08-1.512a1.01,1.01,0,0,0-1.189,0l-2.081,1.512a1.469,1.469,0,0,1-2.26-1.642l.795-2.446a1.009,1.009,0,0,0-.367-1.131l-2.081-1.512a1.469,1.469,0,0,1,.863-2.657h2.572a1.009,1.009,0,0,0,.962-.7l.795-2.446a1.469,1.469,0,0,1,2.794,0l.795,2.446a1.009,1.009,0,0,0,.962.7h2.572a1.469,1.469,0,0,1,.863,2.657l-2.081,1.512a1.009,1.009,0,0,0-.367,1.131l.795,2.446a1.447,1.447,0,0,1-.533,1.642,1.465,1.465,0,0,1-.863.286Z" transform="translate(-372.82 -436.903)" fill="#0054fc"/>
      <path id="Path_1164" data-name="Path 1164" d="M543.49,602.732a1.465,1.465,0,0,1-.863-.286l-2.081-1.511a1.008,1.008,0,0,0-1.189,0l-2.08,1.511a1.469,1.469,0,0,1-2.26-1.642l.795-2.446a1.009,1.009,0,0,0-.368-1.131l-2.08-1.512a1.469,1.469,0,0,1,.863-2.657H536.8a1.009,1.009,0,0,0,.962-.7l.795-2.446a1.469,1.469,0,0,1,2.794,0l.795,2.446a1.009,1.009,0,0,0,.962.7h2.572a1.469,1.469,0,0,1,.863,2.657l-2.08,1.511a1.009,1.009,0,0,0-.368,1.131l.795,2.445a1.447,1.447,0,0,1-.534,1.642A1.465,1.465,0,0,1,543.49,602.732Z" transform="translate(-408.246 -436.903)" fill="#0054fc"/>
      <path id="Path_1165" data-name="Path 1165" d="M592.679,602.634a1.609,1.609,0,0,1-.948-.314,1.589,1.589,0,0,1-.586-1.8l.795-2.446a.865.865,0,0,0-.315-.969l-2.081-1.512a1.613,1.613,0,0,1,.948-2.918h2.571a.865.865,0,0,0,.825-.6l.795-2.446a1.613,1.613,0,0,1,3.068,0l.795,2.446a.864.864,0,0,0,.824.6h2.572a1.613,1.613,0,0,1,.948,2.918l-2.081,1.512a.864.864,0,0,0-.315.969l.795,2.446a1.613,1.613,0,0,1-2.483,1.8l-2.08-1.511a.865.865,0,0,0-1.019,0l-2.08,1.511A1.608,1.608,0,0,1,592.679,602.634Zm3.539-2.738a1.609,1.609,0,0,1,.948.309l2.081,1.512a.867.867,0,0,0,1.334-.969l-.795-2.446a1.609,1.609,0,0,1,.586-1.8l2.08-1.512a.867.867,0,0,0-.51-1.569h-2.572a1.609,1.609,0,0,1-1.534-1.115l-.795-2.446a.867.867,0,0,0-1.649,0L594.6,592.3a1.609,1.609,0,0,1-1.534,1.115h-2.572a.867.867,0,0,0-.51,1.569l2.081,1.512a1.61,1.61,0,0,1,.586,1.8l-.795,2.446a.867.867,0,0,0,1.334.969l2.081-1.511a1.611,1.611,0,0,1,.948-.309Z" transform="translate(-443.429 -436.66)" fill="#3f3d56"/>
      <path id="Path_1166" data-name="Path 1166" d="M249.949,461.5a2.425,2.425,0,1,0,0,4.85H372.7a2.425,2.425,0,1,0,0-4.85Z" transform="translate(-229.429 -357.035)" fill="#ccc"/>
      <path id="Path_1167" data-name="Path 1167" d="M249.949,495.5a2.425,2.425,0,1,0,0,4.85H372.7a2.425,2.425,0,1,0,0-4.85Z" transform="translate(-229.429 -378.35)" fill="#ccc"/>
      <path id="Path_1168" data-name="Path 1168" d="M249.949,529.5a2.425,2.425,0,0,0,0,4.85H372.7a2.425,2.425,0,0,0,0-4.85Z" transform="translate(-229.429 -399.665)" fill="#ccc"/>
      <path id="Path_1169" data-name="Path 1169" d="M249.949,461.5a2.425,2.425,0,1,0,0,4.85H372.7a2.425,2.425,0,1,0,0-4.85Z" transform="translate(-229.429 -357.035)" fill="#ccc"/>
      <path id="Path_1170" data-name="Path 1170" d="M249.949,495.5a2.425,2.425,0,1,0,0,4.85H372.7a2.425,2.425,0,1,0,0-4.85Z" transform="translate(-229.429 -378.35)" fill="#ccc"/>
      <path id="Path_1171" data-name="Path 1171" d="M249.949,529.5a2.425,2.425,0,0,0,0,4.85H372.7a2.425,2.425,0,0,0,0-4.85Z" transform="translate(-229.429 -399.665)" fill="#ccc"/>
      <path id="Path_1172" data-name="Path 1172" d="M360.2,234.105H201.636a2.615,2.615,0,0,1-2.612-2.612V184.112a2.615,2.615,0,0,1,2.612-2.612H360.2a2.615,2.615,0,0,1,2.612,2.612v47.382a2.615,2.615,0,0,1-2.612,2.612ZM201.636,182.246a1.868,1.868,0,0,0-1.865,1.865v47.382a1.868,1.868,0,0,0,1.865,1.865H360.2a1.868,1.868,0,0,0,1.865-1.865V184.112a1.868,1.868,0,0,0-1.865-1.865Z" transform="translate(-199.024 -181.5)" fill="#3f3d56"/>
      <path id="Path_1173" data-name="Path 1173" d="M373.965,352.731a1.465,1.465,0,0,1-.863-.286l-2.08-1.512a1.008,1.008,0,0,0-1.189,0l-2.08,1.512a1.469,1.469,0,0,1-2.26-1.642l.795-2.446a1.009,1.009,0,0,0-.367-1.131l-2.081-1.512a1.469,1.469,0,0,1,.863-2.657h2.572a1.009,1.009,0,0,0,.962-.7l.795-2.446a1.469,1.469,0,0,1,2.794,0l.795,2.446a1.009,1.009,0,0,0,.962.7h2.572a1.469,1.469,0,0,1,.863,2.657l-2.081,1.512a1.009,1.009,0,0,0-.367,1.131l.795,2.446a1.447,1.447,0,0,1-.534,1.642,1.464,1.464,0,0,1-.863.286Z" transform="translate(-301.968 -280.175)" fill="#0054fc"/>
      <path id="Path_1174" data-name="Path 1174" d="M430.473,352.731a1.465,1.465,0,0,1-.863-.286l-2.08-1.512a1.008,1.008,0,0,0-1.189,0l-2.081,1.512A1.469,1.469,0,0,1,422,350.8l.795-2.446a1.009,1.009,0,0,0-.367-1.131l-2.08-1.511a1.469,1.469,0,0,1,.863-2.657h2.572a1.009,1.009,0,0,0,.962-.7l.795-2.446a1.469,1.469,0,0,1,2.794,0l.795,2.446a1.009,1.009,0,0,0,.962.7h2.572a1.469,1.469,0,0,1,.863,2.657l-2.08,1.512a1.009,1.009,0,0,0-.368,1.131l.795,2.446a1.447,1.447,0,0,1-.534,1.642A1.464,1.464,0,0,1,430.473,352.731Z" transform="translate(-337.394 -280.175)" fill="#0054fc"/>
      <path id="Path_1175" data-name="Path 1175" d="M486.982,352.731a1.464,1.464,0,0,1-.863-.286l-2.08-1.512a1.01,1.01,0,0,0-1.189,0l-2.081,1.512a1.469,1.469,0,0,1-2.26-1.642l.795-2.446a1.009,1.009,0,0,0-.367-1.131l-2.081-1.511a1.469,1.469,0,0,1,.863-2.657h2.572a1.009,1.009,0,0,0,.962-.7l.795-2.446a1.469,1.469,0,0,1,2.794,0l.795,2.446a1.009,1.009,0,0,0,.962.7h2.572a1.469,1.469,0,0,1,.863,2.657l-2.081,1.511a1.009,1.009,0,0,0-.367,1.131l.795,2.446a1.447,1.447,0,0,1-.533,1.642,1.465,1.465,0,0,1-.863.286Z" transform="translate(-372.82 -280.175)" fill="#0054fc"/>
      <path id="Path_1176" data-name="Path 1176" d="M592.679,352.634a1.609,1.609,0,0,1-.948-.314,1.59,1.59,0,0,1-.586-1.8l.795-2.446a.865.865,0,0,0-.315-.969l-2.081-1.512a1.613,1.613,0,0,1,.948-2.918h2.571a.865.865,0,0,0,.825-.6l.795-2.446a1.613,1.613,0,0,1,3.068,0l.795,2.446a.865.865,0,0,0,.824.6h2.572a1.613,1.613,0,0,1,.948,2.918l-2.081,1.512a.864.864,0,0,0-.315.969l.795,2.446a1.613,1.613,0,0,1-2.483,1.8l-2.08-1.511a.865.865,0,0,0-1.019,0l-2.08,1.511A1.608,1.608,0,0,1,592.679,352.634Zm3.539-2.738a1.61,1.61,0,0,1,.948.309l2.081,1.512a.867.867,0,0,0,1.334-.969l-.795-2.446a1.609,1.609,0,0,1,.586-1.8l2.08-1.512a.867.867,0,0,0-.51-1.569h-2.572a1.609,1.609,0,0,1-1.534-1.115l-.795-2.446a.867.867,0,0,0-1.649,0L594.6,342.3a1.609,1.609,0,0,1-1.534,1.115h-2.572a.867.867,0,0,0-.51,1.568l2.081,1.512a1.61,1.61,0,0,1,.586,1.8l-.795,2.446a.867.867,0,0,0,1.334.969l2.081-1.511a1.61,1.61,0,0,1,.948-.309Z" transform="translate(-443.429 -279.933)" fill="#3f3d56"/>
      <path id="Path_1177" data-name="Path 1177" d="M535.68,352.473a1.609,1.609,0,0,1-.948-.314,1.59,1.59,0,0,1-.586-1.8l.795-2.446a.865.865,0,0,0-.315-.969l-2.081-1.512a1.613,1.613,0,0,1,.948-2.918h2.572a.865.865,0,0,0,.825-.6l.795-2.446a1.613,1.613,0,0,1,3.068,0l.795,2.446a.865.865,0,0,0,.825.6h2.572a1.613,1.613,0,0,1,.948,2.918l-2.08,1.512a.865.865,0,0,0-.315.969l.795,2.446a1.613,1.613,0,0,1-2.483,1.8l-2.08-1.511a.865.865,0,0,0-1.019,0l-2.08,1.511a1.608,1.608,0,0,1-.948.314Zm3.538-2.738a1.609,1.609,0,0,1,.948.309l2.081,1.512a.867.867,0,0,0,1.334-.969l-.795-2.446a1.609,1.609,0,0,1,.586-1.8l2.08-1.512a.867.867,0,0,0-.51-1.568h-2.572a1.609,1.609,0,0,1-1.534-1.115l-.795-2.446a.867.867,0,0,0-1.649,0l-.795,2.446a1.609,1.609,0,0,1-1.534,1.115h-2.572a.867.867,0,0,0-.51,1.568l2.081,1.512a1.609,1.609,0,0,1,.586,1.8l-.795,2.446a.867.867,0,0,0,1.334.969l2.081-1.512a1.611,1.611,0,0,1,.948-.309Z" transform="translate(-407.695 -279.832)" fill="#3f3d56"/>
      <path id="Path_1178" data-name="Path 1178" d="M249.949,211.5a2.425,2.425,0,1,0,0,4.85H372.7a2.425,2.425,0,1,0,0-4.85Z" transform="translate(-229.429 -200.307)" fill="#ccc"/>
      <path id="Path_1179" data-name="Path 1179" d="M249.949,245.5a2.425,2.425,0,1,0,0,4.85H372.7a2.425,2.425,0,0,0,0-4.85Z" transform="translate(-229.429 -221.622)" fill="#ccc"/>
      <path id="Path_1180" data-name="Path 1180" d="M249.949,279.5a2.425,2.425,0,1,0,0,4.85H372.7a2.425,2.425,0,1,0,0-4.85Z" transform="translate(-229.429 -242.937)" fill="#ccc"/>
      <path id="Path_1181" data-name="Path 1181" d="M249.949,211.5a2.425,2.425,0,1,0,0,4.85H372.7a2.425,2.425,0,1,0,0-4.85Z" transform="translate(-229.429 -200.307)" fill="#ccc"/>
      <path id="Path_1182" data-name="Path 1182" d="M249.949,245.5a2.425,2.425,0,1,0,0,4.85H372.7a2.425,2.425,0,0,0,0-4.85Z" transform="translate(-229.429 -221.622)" fill="#ccc"/>
      <path id="Path_1183" data-name="Path 1183" d="M249.949,279.5a2.425,2.425,0,1,0,0,4.85H372.7a2.425,2.425,0,1,0,0-4.85Z" transform="translate(-229.429 -242.937)" fill="#ccc"/>
    </g>
  </g>
</svg>
