<svg xmlns="http://www.w3.org/2000/svg" width="384.419" height="239.172" viewBox="0 0 384.419 239.172">
  <g id="Group_1611" data-name="Group 1611" transform="translate(0 0)">
    <path id="Path_1546" data-name="Path 1546" d="M297.816,104.123c-16.495,11.548-37.89,10.8-56.639,4.793S205.206,92.208,186.938,84.6a176.258,176.258,0,0,0-47.655-12.422C116,69.518,90,72.763,73.782,91.441,55.717,112.23,57.1,149.735,76.635,168.833c9.94,9.708,22.954,14.473,34.3,22.051s21.862,20.158,20.9,34.78c-.9,13.553-11.3,23.938-22.066,30.461-8.321,5.039-18.567,10.542-19.569,20.982-.97,10.1,7.647,18.014,15.874,22.515a90.166,90.166,0,0,0,86.665-.357c9.537-5.332,18.3-12.408,28.3-16.538,26.267-10.885,55.212.075,83.027,4.08a165.976,165.976,0,0,0,70.616-5.139c13.774-4.069,27.6-10.289,37.277-21.877,6.98-8.356,11.327-18.927,15.407-29.373q6.527-16.7,12.55-33.642c2.407-6.776,4.779-13.688,5.4-20.942,1.127-13.142-3.624-26.135-10.093-37.227-15.361-26.356-41.232-44.873-69.25-49.577s-57.659,4.483-79.39,24.587" transform="translate(-61.066 -71.368)" fill="#d2d2d2" opacity="0.1"/>
    <g id="Group_1608" data-name="Group 1608" transform="translate(47.243 16.797)">
      <path id="Path_853" data-name="Path 853" d="M254.9,706.41l-.743-2.931a38.047,38.047,0,0,0-4.038-1.449l-.094,1.362-.38-1.5c-1.7-.486-2.859-.7-2.859-.7a36.474,36.474,0,0,0,4.844,10.493l3.822.671-2.969.428a15.384,15.384,0,0,0,1.328,1.407c4.771,4.429,10.086,6.461,11.87,4.539s-.637-7.071-5.409-11.5a20.274,20.274,0,0,0-5.2-3.342Z" transform="translate(-217.221 -515.745)" fill="#e6e6e6"/>
      <path id="Path_854" data-name="Path 854" d="M281.647,689.611l.879-2.893a38.087,38.087,0,0,0-2.708-3.328l-.784,1.118.45-1.481c-1.206-1.3-2.086-2.077-2.086-2.077a36.477,36.477,0,0,0-1.277,11.486l2.925,2.55-2.763-1.168a15.412,15.412,0,0,0,.409,1.891c1.8,6.258,5.294,10.744,7.815,10.021s3.109-6.382,1.314-12.64a20.27,20.27,0,0,0-2.722-5.547Z" transform="translate(-236.904 -502.128)" fill="#e6e6e6"/>
      <path id="Path_855" data-name="Path 855" d="M439.785,704.879l-.7-2.755a35.731,35.731,0,0,0-3.8-1.362l-.088,1.28-.358-1.411c-1.6-.457-2.687-.658-2.687-.658a34.281,34.281,0,0,0,4.552,9.862l3.592.631-2.791.4a14.487,14.487,0,0,0,1.248,1.323c4.484,4.162,9.479,6.072,11.156,4.266s-.6-6.646-5.084-10.808a19.052,19.052,0,0,0-4.885-3.141Z" transform="translate(-341.913 -514.926)" fill="#e6e6e6"/>
      <path id="Path_856" data-name="Path 856" d="M464.927,689.09l.826-2.719a35.756,35.756,0,0,0-2.545-3.127l-.737,1.05.423-1.392c-1.133-1.218-1.961-1.952-1.961-1.952a34.285,34.285,0,0,0-1.2,10.8l2.749,2.4-2.6-1.1a14.465,14.465,0,0,0,.385,1.778c1.687,5.881,4.976,10.1,7.345,9.418s2.922-6,1.235-11.88a19.059,19.059,0,0,0-2.558-5.214Z" transform="translate(-360.411 -502.129)" fill="#e6e6e6"/>
      <path id="Path_857" data-name="Path 857" d="M805.936,714.412l-.352-1.388a18.034,18.034,0,0,0-1.913-.686l-.044.645-.18-.711c-.806-.23-1.354-.331-1.354-.331a17.274,17.274,0,0,0,2.294,4.97l1.81.318-1.406.2a7.3,7.3,0,0,0,.629.667c2.26,2.1,4.777,3.06,5.622,2.149s-.3-3.349-2.562-5.446a9.6,9.6,0,0,0-2.462-1.583Z" transform="translate(-590.744 -522.975)" fill="#e6e6e6"/>
      <path id="Path_858" data-name="Path 858" d="M818.638,706.456l.416-1.37a18.032,18.032,0,0,0-1.282-1.576l-.372.529.213-.7c-.571-.614-.988-.984-.988-.984a17.272,17.272,0,0,0-.6,5.44L817.406,709l-1.308-.553a7.274,7.274,0,0,0,.194.9c.85,2.964,2.507,5.089,3.7,4.746s1.473-3.023.622-5.987a9.606,9.606,0,0,0-1.289-2.627Z" transform="translate(-600.099 -516.526)" fill="#e6e6e6"/>
      <path id="Path_859" data-name="Path 859" d="M896.1,705.484l-.463-1.826a23.708,23.708,0,0,0-2.516-.9l-.059.849-.237-.935c-1.06-.3-1.781-.436-1.781-.436a22.724,22.724,0,0,0,3.018,6.537l2.381.418-1.85.267a9.632,9.632,0,0,0,.827.877c2.972,2.759,6.283,4.025,7.395,2.827s-.4-4.4-3.369-7.164a12.635,12.635,0,0,0-3.238-2.082Z" transform="translate(-650.577 -516.446)" fill="#e6e6e6"/>
      <path id="Path_860" data-name="Path 860" d="M912.765,695.019l.548-1.8a23.715,23.715,0,0,0-1.687-2.073l-.489.7.28-.923c-.751-.807-1.3-1.294-1.3-1.294a22.726,22.726,0,0,0-.8,7.155l1.822,1.589-1.721-.728a9.648,9.648,0,0,0,.255,1.178c1.119,3.9,3.3,6.693,4.869,6.243s1.937-3.976.819-7.874a12.639,12.639,0,0,0-1.7-3.456Z" transform="translate(-662.839 -507.963)" fill="#e6e6e6"/>
      <path id="Path_861" data-name="Path 861" d="M714.784,668.842l2.1-2.438a40.468,40.468,0,0,0-1.2-4.408l-1.245.75,1.077-1.248c-.615-1.781-1.136-2.922-1.136-2.922a38.843,38.843,0,0,0-6.2,10.634l1.748,3.744-2.187-2.329a16.4,16.4,0,0,0-.417,2.018c-.95,6.867.523,12.744,3.29,13.127s5.779-4.874,6.729-11.741a21.591,21.591,0,0,0-.259-6.575Z" transform="translate(-526.809 -487.08)" fill="#e6e6e6"/>
      <path id="Path_862" data-name="Path 862" d="M725.156,684.348l3.061-1a40.562,40.562,0,0,0,1.249-4.394l-1.454,0,1.567-.512c.394-1.843.538-3.088.538-3.088a38.842,38.842,0,0,0-10.8,5.9l-.439,4.109-.668-3.124a16.412,16.412,0,0,0-1.4,1.512c-4.363,5.388-6.14,11.18-3.969,12.938s7.467-1.185,11.83-6.573a21.591,21.591,0,0,0,3.177-5.762Z" transform="translate(-530.088 -498.363)" fill="#e6e6e6"/>
      <path id="Path_863" data-name="Path 863" d="M831.93,710.152l.935-1.084a18,18,0,0,0-.535-1.96l-.554.334.479-.555c-.274-.792-.505-1.3-.505-1.3A17.278,17.278,0,0,0,829,710.316l.778,1.665-.972-1.036a7.309,7.309,0,0,0-.185.9c-.422,3.054.233,5.668,1.463,5.838s2.57-2.168,2.993-5.222a9.6,9.6,0,0,0-.115-2.924Z" transform="translate(-608.498 -518.701)" fill="#e6e6e6"/>
      <path id="Path_864" data-name="Path 864" d="M836.543,717.048l1.361-.445a17.972,17.972,0,0,0,.556-1.955h-.646l.7-.228c.175-.82.239-1.374.239-1.374a17.28,17.28,0,0,0-4.8,2.624l-.2,1.828-.3-1.389a7.316,7.316,0,0,0-.623.673c-1.94,2.4-2.731,4.972-1.765,5.754s3.321-.527,5.261-2.923a9.6,9.6,0,0,0,1.413-2.563Z" transform="translate(-609.956 -523.719)" fill="#e6e6e6"/>
      <path id="Path_865" data-name="Path 865" d="M157.017,743.774s228.663-23.57,290.207,0Z" transform="translate(-156.842 -537.34)" fill="#e6e6e6"/>
      <path id="Path_866" data-name="Path 866" d="M879.4,197.325c-.448-34.707-18.154-62.622-39.933-62.622-13.088,0-24.706,10.081-31.991,25.66l8.565,21.492L804.2,168.608a95.642,95.642,0,0,0-4.68,30.065,98.016,98.016,0,0,0,3.019,24.431l22.954-3.7L804.949,230.89c6.693,18.349,18.925,30.88,33.025,31.707l-2.717,73.925,8.409.3-1.8-74.3c20.078-1.912,36.162-27.574,37.45-59.688l-13.875-7.759Z" transform="translate(-589.013 -134.703)" fill="#e6e6e6"/>
      <rect id="Rectangle_1876" data-name="Rectangle 1876" width="54.007" height="2.413" transform="translate(186.853 143.317) rotate(180)" fill="#fff"/>
      <g id="Group_1607" data-name="Group 1607" transform="translate(115.471 55.094)">
        <path id="Path_1226" data-name="Path 1226" d="M442.83,140.044l9.485,1.668,3.162-15.849-7.641-3.337Z" transform="translate(-421.115 -118.613)" fill="#2f2e41"/>
        <path id="Path_1219" data-name="Path 1219" d="M483.418,149.064l9.485,1.668,3.162-15.848-7.641-3.337Z" transform="translate(-450.297 -125.098)" fill="#2f2e41"/>
        <path id="Path_1230" data-name="Path 1230" d="M523.631,556.815v6.59h4.816l-.507-6.336Z" transform="translate(-479.209 -430.858)" fill="#a0616a"/>
        <path id="Path_1229" data-name="Path 1229" d="M422.017,556.815v6.59H417.2l.507-6.336Z" transform="translate(-402.688 -430.858)" fill="#a0616a"/>
        <path id="Path_1224" data-name="Path 1224" d="M580.936,441.075l-3.851,23.47a140.152,140.152,0,0,0-1.773,18.061l-.992,20.164,5.095-.482,4.054-23.194s9.885-36.5,13.433-29.148,5.323,30.669,5.323,30.669l1.7,21.673,5.233.482.672-29.252s3.042-41.821-4.562-45.37Z" transform="translate(-559.833 -376.203)" fill="#2f2e41"/>
        <path id="Path_1231" data-name="Path 1231" d="M676.51,706.4s-5.576-3.8-6.083-.76l-2.028,7.351s-3.042,5.83,3.548,5.83,4.562-4.309,4.562-4.309Z" transform="translate(-626.766 -574.864)" fill="#2f2e41"/>
        <path id="Path_1232" data-name="Path 1232" d="M571.127,706.4s5.576-3.8,6.083-.76l2.028,7.351s3.042,5.829-3.548,5.829-4.562-4.309-4.562-4.309Z" transform="translate(-557.121 -574.864)" fill="#2f2e41"/>
        <ellipse id="Ellipse_288" data-name="Ellipse 288" cx="7.35" cy="7.35" rx="7.35" ry="7.35" transform="translate(27.819 3.408)" fill="#a0616a"/>
        <path id="Path_1221" data-name="Path 1221" d="M622.725,292.856s.76,7.1-3.042,8.618l6.336,7.6,8.364-5.83s-6.083-1.267-5.069-4.816a26.685,26.685,0,0,0,1.014-4.055Z" transform="translate(-592.244 -278.93)" fill="#a0616a"/>
        <path id="Path_1220" data-name="Path 1220" d="M600.312,320.366s5.323,4.055,6.337,3.8,3.042-3.042,3.042-3.042,7.477.127,10.519,2.154-2.915,14.574-2.915,14.574,1.647,5.7-.38,7.224.507,5.323.507,5.323-5.069,9.378-18.5,12.927c0,0-8.364,3.295-8.111,1.521S593.6,342.8,593.6,342.8V321.76Z" transform="translate(-571.478 -298.709)" fill="#ccc"/>
        <path id="Path_1218" data-name="Path 1218" d="M603.73,245.32s-3.839,1.279-4.034,6.333a8.965,8.965,0,0,0,.266,2.4,7.034,7.034,0,0,1-1.32,5.463,54.076,54.076,0,0,0-3.069,5.279l-.012.024,4.216.527.9-6.988a34.793,34.793,0,0,1,2.763-9.81l.029-.065s1.844,3.425,5.533,3.425l-1.317-1.317s5.8,2.371,7.9,2.371c0,0,1.581,1.054,0,2.635s-4.743,5.27-2.9,8.168.263,3.689.263,3.689l2.9-1.581,1.318-.79v1.054l6.85-.79s1.844-.263-2.108-4.743a4.7,4.7,0,0,1-.587-3.24,7.568,7.568,0,0,0,.288-3.539C620.726,248.884,617.252,239.064,603.73,245.32Z" transform="translate(-574.901 -243.299)" fill="#2f2e41"/>
        <path id="Path_1225" data-name="Path 1225" d="M365.556,341.7h68.983v38.236h-8.762v10.515l-9.44-10.515H365.556Z" transform="translate(-365.556 -276.195)" fill="#fff" stroke="#3f3d56" stroke-width="1"/>
        <rect id="Rectangle_1910" data-name="Rectangle 1910" width="46.36" height="2.071" transform="translate(57.672 78.809) rotate(180)" fill="#0054fc"/>
        <rect id="Rectangle_1911" data-name="Rectangle 1911" width="46.36" height="2.071" transform="translate(57.672 85.659) rotate(180)" fill="#0054fc"/>
        <rect id="Rectangle_1912" data-name="Rectangle 1912" width="46.36" height="2.071" transform="translate(57.672 92.51) rotate(180)" fill="#0054fc"/>
        <path id="Path_1227" data-name="Path 1227" d="M581.8,396.833l.76,5.576,5.576,15.461s1.267,11.913,4.309,10.392-.507-12.166-.507-12.166l-4.562-14.447.253-5.069Z" transform="translate(-565.007 -353.506)" fill="#a0616a"/>
        <path id="Path_1228" data-name="Path 1228" d="M586.923,325.223l-2.286-.745-1.009.492s-3.549.253-4.055,2.788-2.281,18.249-2.281,18.249l9.378.507Z" transform="translate(-561.765 -301.666)" fill="#ccc"/>
        <path id="Path_1223" data-name="Path 1223" d="M671.823,396.833l-.76,5.576-5.576,15.461s-1.267,11.913-4.309,10.392.507-12.166.507-12.166l4.562-14.447-.254-5.069Z" transform="translate(-621.192 -353.506)" fill="#a0616a"/>
        <path id="Path_1222" data-name="Path 1222" d="M672.447,325.763l1.219-.4a2.774,2.774,0,0,1,2.076.144h0s3.548.253,4.055,2.788,2.281,18.249,2.281,18.249l-9.378.507Z" transform="translate(-630.18 -302.206)" fill="#ccc"/>
      </g>
      <path id="Path_882" data-name="Path 882" d="M108.979,17.333H0v60.4H13.843V94.348L28.755,77.737h80.224Z" transform="translate(0 -11.659)" fill="none" stroke="#3f3d56" stroke-width="1"/>
      <rect id="Rectangle_1877" data-name="Rectangle 1877" width="73.24" height="3.272" transform="translate(17.87 23.418)" fill="#0054fc"/>
      <rect id="Rectangle_1878" data-name="Rectangle 1878" width="73.24" height="3.272" transform="translate(17.87 34.24)" fill="#0054fc"/>
      <rect id="Rectangle_1879" data-name="Rectangle 1879" width="73.24" height="3.272" transform="translate(17.87 45.063)" fill="#0054fc"/>
      <ellipse id="Ellipse_246" data-name="Ellipse 246" cx="2.946" cy="2.946" rx="2.946" ry="2.946" transform="translate(8.85 84.598)" fill="#e6e6e6"/>
    </g>
  </g>
</svg>
