<svg xmlns="http://www.w3.org/2000/svg" width="26.503" height="26.504" viewBox="0 0 26.503 26.504">
  <g id="growth_1_" data-name="growth (1)" transform="translate(-0.005 0)">
    <g id="Group_1578" data-name="Group 1578" transform="translate(0.005 15.633)">
      <g id="Group_1577" data-name="Group 1577" transform="translate(0)">
        <path id="Path_770" data-name="Path 770" d="M1.558,302.005H.781a.776.776,0,0,0-.776.776V312.1a.776.776,0,0,0,.776.776H3.111v-9.318A1.553,1.553,0,0,0,1.558,302.005Z" transform="translate(-0.005 -302.005)" fill="#c8d1e2"/>
      </g>
    </g>
    <g id="Group_1580" data-name="Group 1580" transform="translate(6.268 0)">
      <g id="Group_1579" data-name="Group 1579" transform="translate(0 0)">
        <path id="Path_771" data-name="Path 771" d="M140.761.059a.775.775,0,0,0-.846.168l-.455.455a3.115,3.115,0,0,1-2.154.87,5.486,5.486,0,0,0-5.435,5.487V8.558a5.179,5.179,0,0,0-.776,1,5.179,5.179,0,0,0-.776-1V7.04a5.486,5.486,0,0,0-5.435-5.487,2.992,2.992,0,0,1-2.1-.87l-.455-.455A.776.776,0,0,0,121,.777V3.882a5.531,5.531,0,0,0,5.435,5.539h2.558a4.169,4.169,0,0,1,1.119,1.655,5.44,5.44,0,0,0-3.906,3.01,3.843,3.843,0,0,0-.565.1,7.775,7.775,0,0,1,2.441,1.446h4.565a3.11,3.11,0,0,1,2.817,1.8l1.827-2.274a3.532,3.532,0,0,1,.532-.477,3.882,3.882,0,0,0-1.841-.593,5.441,5.441,0,0,0-3.906-3.01A4.169,4.169,0,0,1,133.2,9.421h2.558a5.576,5.576,0,0,0,5.487-5.539V.776A.776.776,0,0,0,140.761.059Z" transform="translate(-121.001 0)" fill="#c8d1e2"/>
      </g>
    </g>
    <g id="Group_1582" data-name="Group 1582" transform="translate(4.664 15.338)">
      <g id="Group_1581" data-name="Group 1581">
        <path id="Path_772" data-name="Path 772" d="M111.211,296.9a1.548,1.548,0,0,0-2.05.2l-4.245,5.218a1.877,1.877,0,0,1-1.149.5H97.043a.776.776,0,1,1,0-1.553h6.212a1.553,1.553,0,1,0,0-3.106H98.409a.942.942,0,0,1-.513-.186,5.509,5.509,0,0,0-3.991-1.662,6.273,6.273,0,0,0-3.9,1.509v9.656h12.475c2.236,0,3.634-.7,4.5-1.864l4.555-6.522A1.565,1.565,0,0,0,111.211,296.9Z" transform="translate(-90.003 -296.305)" fill="#c8d1e2"/>
      </g>
    </g>
  </g>
</svg>
