<svg xmlns="http://www.w3.org/2000/svg" width="18.236" height="18.236" viewBox="0 0 18.236 18.236"><path d="M9.118,0a9.118,9.118,0,1,0,9.118,9.118A9.128,9.128,0,0,0,9.118,0Zm.593,14.528c-.433.072-1.3.253-1.733.289a1.067,1.067,0,0,1-.933-.486,1.139,1.139,0,0,1-.138-1.043L8.63,8.548H6.838A2.142,2.142,0,0,1,8.525,6.556a6.6,6.6,0,0,1,1.733-.287,1.374,1.374,0,0,1,.933.486A1.139,1.139,0,0,1,11.329,7.8L9.605,12.537H11.4a2.017,2.017,0,0,1-1.686,1.991ZM10.258,5.7a1.14,1.14,0,1,1,1.14-1.14,1.14,1.14,0,0,1-1.14,1.14Z" fill="#aaa"/></svg>