<svg id="layout" xmlns="http://www.w3.org/2000/svg" width="27.549" height="27.549" viewBox="0 0 27.549 27.549">
  <g id="Group_1550" data-name="Group 1550">
    <g id="Group_1549" data-name="Group 1549">
      <path id="Path_749" data-name="Path 749" d="M5.058,0H3.766A3.771,3.771,0,0,0,0,3.766V23.782a3.771,3.771,0,0,0,3.766,3.766H5.058a3.771,3.771,0,0,0,3.766-3.766V3.766A3.771,3.771,0,0,0,5.058,0ZM6.672,23.782A1.616,1.616,0,0,1,5.058,25.4H3.766a1.616,1.616,0,0,1-1.614-1.614V3.766A1.616,1.616,0,0,1,3.766,2.152H5.058A1.616,1.616,0,0,1,6.672,3.766Z" fill="#0054fc"/>
      <path id="Path_750" data-name="Path 750" d="M218.7,0h-8.932A3.771,3.771,0,0,0,206,3.766V5.058a3.771,3.771,0,0,0,3.766,3.766H218.7a3.771,3.771,0,0,0,3.766-3.766V3.766A3.771,3.771,0,0,0,218.7,0Zm1.614,5.058A1.616,1.616,0,0,1,218.7,6.672h-8.932a1.616,1.616,0,0,1-1.614-1.614V3.766a1.616,1.616,0,0,1,1.614-1.614H218.7a1.616,1.616,0,0,1,1.614,1.614Z" transform="translate(-194.916)" fill="#0054fc"/>
      <path id="Path_751" data-name="Path 751" d="M218.7,207h-8.932A3.771,3.771,0,0,0,206,210.766v8.878a3.771,3.771,0,0,0,3.766,3.766H218.7a3.771,3.771,0,0,0,3.766-3.766,1.076,1.076,0,0,0-2.152,0,1.616,1.616,0,0,1-1.614,1.614h-8.932a1.616,1.616,0,0,1-1.614-1.614v-8.878a1.616,1.616,0,0,1,1.614-1.614H218.7a1.616,1.616,0,0,1,1.614,1.614v3.5a1.076,1.076,0,0,0,2.152,0v-3.5A3.771,3.771,0,0,0,218.7,207Z" transform="translate(-194.916 -195.862)" fill="#0054fc"/>
    </g>
  </g>
</svg>
