<svg xmlns="http://www.w3.org/2000/svg" width="18.111" height="26.338" viewBox="0 0 18.111 26.338"><path d="M89.023,26.338a1.573,1.573,0,0,1-1.377-.8l-.009-.016L81.106,13.57a9.169,9.169,0,0,1,.12-9.06A8.938,8.938,0,0,1,88.82,0c.135,0,.27,0,.405,0A8.938,8.938,0,0,1,96.821,4.51a9.169,9.169,0,0,1,.12,9.06L90.409,25.524l-.009.016A1.573,1.573,0,0,1,89.023,26.338Zm0-24.692-.169,0a7.3,7.3,0,0,0-6.2,3.688,7.535,7.535,0,0,0-.1,7.445l6.473,11.847L95.5,12.781a7.535,7.535,0,0,0-.1-7.446,7.3,7.3,0,0,0-6.2-3.688l-.169,0Z" transform="translate(-79.968 0.001)"/><path d="M187.7,95.408a3.7,3.7,0,1,1,3.7-3.7A3.708,3.708,0,0,1,187.7,95.408Zm0-5.761a2.058,2.058,0,1,0,2.058,2.058A2.06,2.06,0,0,0,187.7,89.646Z" transform="translate(-178.648 -83.473)"/></svg>