<svg xmlns="http://www.w3.org/2000/svg" width="528" height="528" viewBox="0 0 528 528">
  <g id="Group_1554" data-name="Group 1554" transform="translate(1099 -8521)">
    <circle id="Ellipse_179" data-name="Ellipse 179" cx="264" cy="264" r="264" transform="translate(-1099 8521)" fill="#eff0f6"/>
    <path id="Path_760" data-name="Path 760" d="M6,0C31.04,0,95.356.941,95.442.941c.256.171,6.651,16.458,6.7,16.6.244,0,195.133.19,195.323,0,0,.487.531,97.679.531,186.459a6,6,0,0,1-6,6H6a6,6,0,0,1-6-6V6A6,6,0,0,1,6,0Z" transform="translate(-686 8890) rotate(180)" fill="#bec6cb"/>
    <rect id="Rectangle_1773" data-name="Rectangle 1773" width="244" height="241" rx="3" transform="translate(-963.161 8649.739) rotate(-3)" fill="#fff"/>
    <path id="Path_759" data-name="Path 759" d="M6,0c25.04,0,96.568.939,96.568.939s7.271,16.229,7.324,16.371c.244,0,187.387.42,187.577.23,0,.487.531,97.679.531,186.459a6,6,0,0,1-6,6H6a6,6,0,0,1-6-6V6A6,6,0,0,1,6,0Z" transform="translate(-984 8699)" opacity="0.04"/>
    <path id="Path_758" data-name="Path 758" d="M6,0C31.04,0,95.356.941,95.442.941c.256.171,6.651,16.458,6.7,16.6.244,0,195.133.19,195.323,0,0,.487.531,97.679.531,186.459a6,6,0,0,1-6,6H6a6,6,0,0,1-6-6V6A6,6,0,0,1,6,0Z" transform="translate(-984 8714)" fill="#d3d9dd"/>
    <path id="empty" d="M71.237,35.618a35.635,35.635,0,0,1-54.2,30.4l4.084-4.084A30.042,30.042,0,0,0,61.938,21.125l4.084-4.084A35.388,35.388,0,0,1,71.237,35.618ZM4.055,71.118.119,67.182l8.422-8.422A35.619,35.619,0,0,1,35.618,0,35.352,35.352,0,0,1,58.761,8.541L67.182.119l3.935,3.935ZM12.5,54.8,54.8,12.5A30.036,30.036,0,0,0,12.5,54.8Z" transform="translate(-870.618 8776.382)" fill="#e9ecee"/>
  </g>
</svg>
