<svg xmlns="http://www.w3.org/2000/svg" width="24.089" height="24.089" viewBox="0 0 24.089 24.089"><g transform="translate(0 9.464)"><path d="M6.022,187.733H.86a.86.86,0,0,0-.86.86V201.5a.86.86,0,0,0,.86.86H6.022a.86.86,0,0,0,.86-.86V188.593A.86.86,0,0,0,6.022,187.733Zm-.86,12.905H1.721V189.454H5.162Z" transform="translate(0 -187.733)" fill="#182936"/></g><g transform="translate(8.603)"><path d="M176.688,0h-5.162a.86.86,0,0,0-.86.86V23.229a.86.86,0,0,0,.86.86h5.162a.86.86,0,0,0,.86-.86V.86A.86.86,0,0,0,176.688,0Zm-.86,22.369h-3.441V1.721h3.441Z" transform="translate(-170.666)" fill="#182936"/></g><g transform="translate(17.207 6.883)"><path d="M347.355,136.533h-5.162a.86.86,0,0,0-.86.86v15.486a.86.86,0,0,0,.86.86h5.162a.86.86,0,0,0,.86-.86V137.393A.86.86,0,0,0,347.355,136.533Zm-.86,15.486h-3.441V138.254H346.5Z" transform="translate(-341.333 -136.533)" fill="#182936"/></g></svg>