<svg xmlns="http://www.w3.org/2000/svg" width="22.195" height="27.549" viewBox="0 0 22.195 27.549">
  <g id="product_3_" data-name="product (3)" transform="translate(-31.5 -23.638)">
    <path id="Path_747" data-name="Path 747" d="M53.314,33.079l-5.554-2.151a5.474,5.474,0,1,0-10.326,0L31.88,33.079a.6.6,0,0,0-.38.557V46.519a.6.6,0,0,0,.381.557l10.5,4.07a.6.6,0,0,0,.216.04.592.592,0,0,0,.213-.044l0,0,10.5-4.07a.6.6,0,0,0,.38-.557V33.636a.6.6,0,0,0-.38-.557Zm-1.869.557-1.938.751-3.212-1.236a5.5,5.5,0,0,0,.947-1.144Zm-6.326.344,2.732,1.051-1.542.6-2.829-1.105A5.437,5.437,0,0,0,45.119,33.98Zm1.859,2.67,2.007-.778v2.49l-.336-.219a.6.6,0,0,0-.761.091l-.91.966ZM42.6,24.848a4.278,4.278,0,1,1-4.278,4.278A4.278,4.278,0,0,1,42.6,24.848Zm-4.3,7.649-.8-.312.458-.178a5.485,5.485,0,0,0,.342.491Zm-2.448.326,8.811,3.444-2.061.8-8.847-3.43ZM32.7,46.109v-11.6L42,38.116v11.6Zm10.5,3.607v-11.6l2.588-1V40.7a.6.6,0,0,0,.377.555.591.591,0,0,0,.22.042.6.6,0,0,0,.435-.188l1.6-1.7.841.546a.6.6,0,0,0,.922-.5V35.408l2.322-.9v11.6Z" fill="#0054fc"/>
    <path id="Path_748" data-name="Path 748" d="M57.5,37.781a.6.6,0,0,0,.785-.012l2.9-2.6a.6.6,0,1,0-.8-.888l-2.51,2.257-1.143-.966a.6.6,0,1,0-.772.913Z" transform="translate(-15.97 -6.896)" fill="#0054fc"/>
  </g>
</svg>
