<svg xmlns="http://www.w3.org/2000/svg" width="19.805" height="24.582" viewBox="0 0 19.805 24.582"><path d="M50.965,32.063l-4.956-1.92a4.884,4.884,0,1,0-9.214,0l-4.956,1.92a.533.533,0,0,0-.339.5v11.5a.533.533,0,0,0,.34.5l9.369,3.632a.535.535,0,0,0,.193.036.528.528,0,0,0,.19-.04l0,0,9.37-3.632a.533.533,0,0,0,.339-.5V32.56a.533.533,0,0,0-.339-.5Zm-1.668.5-1.73.67-2.867-1.1a4.91,4.91,0,0,0,.845-1.021Zm-5.645.307,2.438.938-1.376.533-2.525-.986A4.851,4.851,0,0,0,43.652,32.866Zm1.659,2.382,1.791-.694v2.221l-.3-.2a.534.534,0,0,0-.679.081l-.812.862ZM41.4,24.718a3.818,3.818,0,1,1-3.818,3.818A3.818,3.818,0,0,1,41.4,24.718Zm-3.839,6.825-.714-.279.409-.158a4.893,4.893,0,0,0,.305.438Zm-2.184.291,7.862,3.073L41.4,35.62l-7.895-3.06ZM32.566,43.69V33.338l8.3,3.219V46.908Zm9.369,3.219V36.557l2.309-.9v3.206a.533.533,0,0,0,.337.5.527.527,0,0,0,.2.038.533.533,0,0,0,.388-.168l1.427-1.515.75.487a.533.533,0,0,0,.823-.447V34.141l2.072-.8V43.69Z" transform="translate(-31.5 -23.638)" fill="#182936"/><path d="M57.314,37.386a.533.533,0,0,0,.7-.01L60.6,35.051a.533.533,0,1,0-.713-.792l-2.24,2.014-1.02-.862a.533.533,0,0,0-.689.814Z" transform="translate(-48.361 -30.919)" fill="#182936"/></svg>