<svg xmlns="http://www.w3.org/2000/svg" width="26.338" height="26.338" viewBox="0 0 26.338 26.338"><path d="M33.315,12.346A2.306,2.306,0,0,0,34.92,11.7l2.271,1.136a2.315,2.315,0,1,0,4.385-.712l3.087-3.087A2.315,2.315,0,0,0,47.87,6.252l2.682-2.011a2.312,2.312,0,1,0-.927-1.234L46.943,5.018a2.314,2.314,0,0,0-3.371,2.924l-3.087,3.087a2.31,2.31,0,0,0-2.6.423l-2.271-1.136a2.315,2.315,0,1,0-2.3,2.029Zm18.519-10.8a.772.772,0,1,1-.772.772A.773.773,0,0,1,51.834,1.543Zm-6.173,4.63a.772.772,0,1,1-.772.772A.773.773,0,0,1,45.661,6.173Zm-6.173,6.173a.772.772,0,1,1-.772.772A.773.773,0,0,1,39.488,12.346ZM33.315,9.26a.772.772,0,1,1-.772.772A.773.773,0,0,1,33.315,9.26Zm0,0" transform="translate(-29.405 0)" fill="#182936"/><path d="M25.567,167.079h-.823V150.772a.772.772,0,0,0-.772-.772H20.885a.772.772,0,0,0-.772.772v16.307H18.57V155.4a.772.772,0,0,0-.772-.772H14.712a.772.772,0,0,0-.772.772v11.677H12.4v-5.5a.772.772,0,0,0-.772-.772H8.539a.772.772,0,0,0-.772.772v5.5H6.224v-8.591a.772.772,0,0,0-.772-.772H2.366a.772.772,0,0,0-.772.772v8.591H.772a.772.772,0,0,0,0,1.543H25.567a.772.772,0,1,0,0-1.543Zm-3.91-15.535H23.2v15.535H21.657Zm-6.173,4.63h1.543v10.906H15.484Zm-6.173,6.173h1.543v4.733H9.311Zm-6.173-3.087H4.681v7.819H3.138Zm0,0" transform="translate(0 -142.284)" fill="#182936"/></svg>