<svg xmlns="http://www.w3.org/2000/svg" width="26.338" height="26.338" viewBox="0 0 26.338 26.338"><path d="M12.86,77.43a6.43,6.43,0,1,0-6.43,6.43A6.438,6.438,0,0,0,12.86,77.43ZM6.43,82.317a4.887,4.887,0,1,1,4.887-4.887A4.893,4.893,0,0,1,6.43,82.317Z" transform="translate(0 -67.348)" fill="#182936"/><path d="M196.43,262a6.43,6.43,0,1,0,6.43,6.43A6.437,6.437,0,0,0,196.43,262Zm0,11.317a4.887,4.887,0,1,1,4.887-4.887A4.893,4.893,0,0,1,196.43,273.317Z" transform="translate(-180.226 -248.522)" fill="#182936"/><ellipse cx="0.5" cy="1" rx="0.5" ry="1" transform="translate(16.578 17.991)" fill="#182936"/><circle cx="1" cy="1" r="1" transform="translate(13.578 17.991)" fill="#182936"/><path d="M264.342,405.644a2.141,2.141,0,0,1-3.024,0,.772.772,0,1,0-1.091,1.091,3.686,3.686,0,0,0,5.207,0,.772.772,0,0,0-1.091-1.091Z" transform="translate(-246.626 -384.562)" fill="#182936"/><ellipse cx="1" cy="1.5" rx="1" ry="1.5" transform="translate(7.578 6.991)" fill="#182936"/><ellipse cx="0.5" cy="1.5" rx="0.5" ry="1.5" transform="translate(4.578 6.991)" fill="#182936"/><path d="M74.887,221H70.772a.772.772,0,0,0,0,1.543h4.115a.772.772,0,1,0,0-1.543Z" transform="translate(-66.399 -209.631)" fill="#182936"/><path d="M268.43,0a6.43,6.43,0,1,0,6.43,6.43A6.437,6.437,0,0,0,268.43,0Zm0,11.317a4.887,4.887,0,1,1,4.887-4.887A4.893,4.893,0,0,1,268.43,11.317Z" transform="translate(-248.522)" fill="#182936"/><ellipse cx="0.5" cy="1" rx="0.5" ry="1" transform="translate(20.578 3.991)" fill="#182936"/><ellipse cx="0.5" cy="1" rx="0.5" ry="1" transform="translate(17.578 3.991)" fill="#182936"/><path d="M332.227,141.123a.772.772,0,1,0,1.091,1.091,2.141,2.141,0,0,1,3.024,0,.772.772,0,0,0,1.091-1.091A3.686,3.686,0,0,0,332.227,141.123Z" transform="translate(-314.922 -132.842)" fill="#182936"/></svg>