<svg xmlns="http://www.w3.org/2000/svg" width="30.36" height="26.684" viewBox="0 0 30.36 26.684">
  <g id="supermarket" transform="translate(0 0)">
    <path id="Path_779" data-name="Path 779" d="M9.843,17.789H25.913a.887.887,0,0,0,.855-.645L30.325,4.691a.888.888,0,0,0-.855-1.134H7.79L7.154.7A.889.889,0,0,0,6.285,0H.889a.889.889,0,0,0,0,1.779H5.571L8.783,16.232a2.667,2.667,0,0,0,1.06,5.115H25.913a.889.889,0,0,0,0-1.779H9.843a.889.889,0,0,1,0-1.779Zm0,0" fill="#c8d1e2"/>
    <path id="Path_780" data-name="Path 780" d="M151,362.672A2.668,2.668,0,1,0,153.669,360,2.671,2.671,0,0,0,151,362.672Zm0,0" transform="translate(-142.046 -338.657)" fill="#c8d1e2"/>
    <path id="Path_781" data-name="Path 781" d="M362,362.672A2.668,2.668,0,1,0,364.672,360,2.671,2.671,0,0,0,362,362.672Zm0,0" transform="translate(-340.539 -338.657)" fill="#c8d1e2"/>
  </g>
</svg>
