<svg xmlns="http://www.w3.org/2000/svg" width="23.87" height="26.338" viewBox="0 0 23.87 26.338"><path d="M179.9,208.461H177.84a1.854,1.854,0,0,1-1.852-1.852V193.852A1.854,1.854,0,0,1,177.84,192H179.9a1.854,1.854,0,0,1,1.852,1.852v12.758A1.854,1.854,0,0,1,179.9,208.461Zm-2.058-14.815a.206.206,0,0,0-.206.206v12.758a.206.206,0,0,0,.206.206H179.9a.206.206,0,0,0,.206-.206V193.852a.206.206,0,0,0-.206-.206Z" transform="translate(-168.169 -182.123)" fill="#182936"/><path d="M27.9,284.346H25.84a1.854,1.854,0,0,1-1.852-1.852v-8.642A1.854,1.854,0,0,1,25.84,272H27.9a1.854,1.854,0,0,1,1.852,1.852v8.642A1.854,1.854,0,0,1,27.9,284.346Zm-2.058-10.7a.206.206,0,0,0-.206.206v8.642a.206.206,0,0,0,.206.206H27.9a.206.206,0,0,0,.206-.206v-8.642a.206.206,0,0,0-.206-.206Z" transform="translate(-23.988 -258.008)" fill="#182936"/><path d="M286.343,26.338h-2.058a1.854,1.854,0,0,1-1.852-1.852V7.408H281.3A1.337,1.337,0,0,1,280.288,5.2l.012-.014L284.7.274a.823.823,0,0,1,1.226,0l4.4,4.912.012.014a1.337,1.337,0,0,1-1.016,2.208H288.2V24.486A1.854,1.854,0,0,1,286.343,26.338ZM281.994,5.761h1.263a.823.823,0,0,1,.823.823v17.9a.206.206,0,0,0,.206.206h2.058a.206.206,0,0,0,.206-.206V6.585a.823.823,0,0,1,.823-.823h1.263l-3.32-3.705Z" transform="translate(-266.795 0)" fill="#182936"/></svg>